<svg xmlns="http://www.w3.org/2000/svg" width="24" height="24" viewBox="0 0 24 24" fill="none">
  <g transform="translate(2.000 2.000) scale(1.19048) translate(0.000 0.000)"><path d="M 9.15 0 C 9.15 -0.414 8.814 -0.75 8.4 -0.75 C 7.986 -0.75 7.65 -0.414 7.65 0 L 8.4 0 L 9.15 0 Z M 2.85 0 C 2.85 -0.414 2.514 -0.75 2.1 -0.75 C 1.686 -0.75 1.35 -0.414 1.35 0 L 2.1 0 L 2.85 0 Z M 7.65 16.8 C 7.65 17.214 7.986 17.55 8.4 17.55 C 8.814 17.55 9.15 17.214 9.15 16.8 L 8.4 16.8 L 7.65 16.8 Z M 15.45 0 C 15.45 -0.414 15.114 -0.75 14.7 -0.75 C 14.286 -0.75 13.95 -0.414 13.95 0 L 14.7 0 L 15.45 0 Z M 1.35 16.8 C 1.35 17.214 1.686 17.55 2.1 17.55 C 2.514 17.55 2.85 17.214 2.85 16.8 L 2.1 16.8 L 1.35 16.8 Z M 13.95 16.8 C 13.95 17.214 14.286 17.55 14.7 17.55 C 15.114 17.55 15.45 17.214 15.45 16.8 L 14.7 16.8 L 13.95 16.8 Z M 8.4 2.1 L 9.15 2.1 L 9.15 0 L 8.4 0 L 7.65 0 L 7.65 2.1 L 8.4 2.1 Z M 4.2 12.6 L 3.45 12.6 C 3.45 13.346 2.846 13.95 2.1 13.95 L 2.1 14.7 L 2.1 15.45 C 3.674 15.45 4.95 14.174 4.95 12.6 L 4.2 12.6 Z M 2.1 14.7 L 2.1 13.95 C 1.354 13.95 0.75 13.346 0.75 12.6 L 0 12.6 L -0.75 12.6 C -0.75 14.174 0.526 15.45 2.1 15.45 L 2.1 14.7 Z M 0 12.6 L 0.75 12.6 C 0.75 11.854 1.354 11.25 2.1 11.25 L 2.1 10.5 L 2.1 9.75 C 0.526 9.75 -0.75 11.026 -0.75 12.6 L 0 12.6 Z M 2.1 10.5 L 2.1 11.25 C 2.846 11.25 3.45 11.854 3.45 12.6 L 4.2 12.6 L 4.95 12.6 C 4.95 11.026 3.674 9.75 2.1 9.75 L 2.1 10.5 Z M 10.5 4.2 L 9.75 4.2 C 9.75 4.946 9.146 5.55 8.4 5.55 L 8.4 6.3 L 8.4 7.05 C 9.974 7.05 11.25 5.774 11.25 4.2 L 10.5 4.2 Z M 8.4 6.3 L 8.4 5.55 C 7.654 5.55 7.05 4.946 7.05 4.2 L 6.3 4.2 L 5.55 4.2 C 5.55 5.774 6.826 7.05 8.4 7.05 L 8.4 6.3 Z M 6.3 4.2 L 7.05 4.2 C 7.05 3.454 7.654 2.85 8.4 2.85 L 8.4 2.1 L 8.4 1.35 C 6.826 1.35 5.55 2.626 5.55 4.2 L 6.3 4.2 Z M 8.4 2.1 L 8.4 2.85 C 9.146 2.85 9.75 3.454 9.75 4.2 L 10.5 4.2 L 11.25 4.2 C 11.25 2.626 9.974 1.35 8.4 1.35 L 8.4 2.1 Z M 16.8 12.6 L 16.05 12.6 C 16.05 13.346 15.446 13.95 14.7 13.95 L 14.7 14.7 L 14.7 15.45 C 16.274 15.45 17.55 14.174 17.55 12.6 L 16.8 12.6 Z M 14.7 14.7 L 14.7 13.95 C 13.954 13.95 13.35 13.346 13.35 12.6 L 12.6 12.6 L 11.85 12.6 C 11.85 14.174 13.126 15.45 14.7 15.45 L 14.7 14.7 Z M 12.6 12.6 L 13.35 12.6 C 13.35 11.854 13.954 11.25 14.7 11.25 L 14.7 10.5 L 14.7 9.75 C 13.126 9.75 11.85 11.026 11.85 12.6 L 12.6 12.6 Z M 14.7 10.5 L 14.7 11.25 C 15.446 11.25 16.05 11.854 16.05 12.6 L 16.8 12.6 L 17.55 12.6 C 17.55 11.026 16.274 9.75 14.7 9.75 L 14.7 10.5 Z M 2.1 10.5 L 2.85 10.5 L 2.85 0 L 2.1 0 L 1.35 0 L 1.35 10.5 L 2.1 10.5 Z M 8.4 16.8 L 9.15 16.8 L 9.15 6.3 L 8.4 6.3 L 7.65 6.3 L 7.65 16.8 L 8.4 16.8 Z M 14.7 10.5 L 15.45 10.5 L 15.45 0 L 14.7 0 L 13.95 0 L 13.95 10.5 L 14.7 10.5 Z M 2.1 16.8 L 2.85 16.8 L 2.85 14.7 L 2.1 14.7 L 1.35 14.7 L 1.35 16.8 L 2.1 16.8 Z M 14.7 16.8 L 15.45 16.8 L 15.45 14.7 L 14.7 14.7 L 13.95 14.7 L 13.95 16.8 L 14.7 16.8 Z" fill="currentColor" fill-rule="nonzero"></path></g>
</svg>