<svg xmlns="http://www.w3.org/2000/svg" width="24" height="24" viewBox="0 0 24 24" fill="none">
  <g transform="translate(3.190 2.000) scale(1.19048) translate(0.000 0.000)"><path d="M -0.75 16.8 C -0.75 17.214 -0.414 17.55 0 17.55 C 0.414 17.55 0.75 17.214 0.75 16.8 L 0 16.8 L -0.75 16.8 Z M 14.8 0 L 15.445 0.382 C 15.583 0.15 15.585 -0.137 15.452 -0.371 C 15.318 -0.606 15.069 -0.75 14.8 -0.75 L 14.8 0 Z M 11.9 4.9 L 11.254 4.518 C 11.111 4.761 11.116 5.064 11.267 5.303 L 11.9 4.9 Z M 14.636 9.2 L 14.636 9.95 C 14.91 9.95 15.162 9.801 15.294 9.561 C 15.426 9.321 15.416 9.028 15.269 8.797 L 14.636 9.2 Z M 0 16.8 L 0.75 16.8 L 0.75 11.067 L 0 11.067 L -0.75 11.067 L -0.75 16.8 L 0 16.8 Z M 0 11.067 L 0.75 11.067 L 0.75 1.867 L 0 1.867 L -0.75 1.867 L -0.75 11.067 L 0 11.067 Z M 1.867 0 L 1.867 0.75 L 14.8 0.75 L 14.8 0 L 14.8 -0.75 L 1.867 -0.75 L 1.867 0 Z M 14.8 0 L 14.155 -0.382 L 11.254 4.518 L 11.9 4.9 L 12.545 5.282 L 15.445 0.382 L 14.8 0 Z M 11.9 4.9 L 11.267 5.303 L 14.004 9.603 L 14.636 9.2 L 15.269 8.797 L 12.533 4.497 L 11.9 4.9 Z M 14.636 9.2 L 14.636 8.45 L 1.867 8.45 L 1.867 9.2 L 1.867 9.95 L 14.636 9.95 L 14.636 9.2 Z M 1.867 9.2 L 1.867 8.45 C 0.422 8.45 -0.75 9.622 -0.75 11.067 L 0 11.067 L 0.75 11.067 C 0.75 10.45 1.25 9.95 1.867 9.95 L 1.867 9.2 Z M 0 1.867 L 0.75 1.867 C 0.75 1.25 1.25 0.75 1.867 0.75 L 1.867 0 L 1.867 -0.75 C 0.422 -0.75 -0.75 0.422 -0.75 1.867 L 0 1.867 Z" fill="currentColor" fill-rule="nonzero"></path></g>
</svg>