<svg xmlns="http://www.w3.org/2000/svg" viewBox="0 0 174 40" fill="currentColor">
  <svg x="0" y="0" width="8.52" height="29.82" viewBox="0 0 8.52 29.82" preserveAspectRatio="none">
  <path d="M 8.52 0 L 0 0 L 0 1.42 L 8.52 1.42 L 8.52 0 Z M 8.52 28.4 L 0 28.4 L 0 29.82 L 8.52 29.82 L 8.52 28.4 Z M 2.84 5.68 L 8.52 5.68 L 8.52 7.1 L 2.84 7.1 L 2.84 5.68 Z M 8.52 19.88 L 2.84 19.88 L 2.84 21.3 L 8.52 21.3 L 8.52 19.88 Z M 0 14.2 L 8.52 14.2 L 8.52 15.62 L 0 15.62 L 0 14.2 Z M 8.52 2.84 L 2.84 2.84 L 2.84 4.26 L 8.52 4.26 L 8.52 2.84 Z M 2.84 17.04 L 8.52 17.04 L 8.52 18.46 L 2.84 18.46 L 2.84 17.04 Z M 8.52 8.52 L 2.84 8.52 L 2.84 9.94 L 8.52 9.94 L 8.52 8.52 Z M 2.84 22.72 L 8.52 22.72 L 8.52 24.14 L 2.84 24.14 L 2.84 22.72 Z M 8.52 11.36 L 2.84 11.36 L 2.84 12.78 L 8.52 12.78 L 8.52 11.36 Z M 2.84 25.56 L 8.52 25.56 L 8.52 26.98 L 2.84 26.98 L 2.84 25.56 Z" fill="currentColor" fill-rule="evenodd"></path>
</svg>
  <svg x="9.94" y="0" width="164.06" height="39.37" viewBox="0 0 164.06 39.37" preserveAspectRatio="none">
  <path d="M 4.29 0 L 0 0 L 0 5.68 L 1.42 5.68 C 5.68 5.68 6.39 7.95 6.39 9.66 C 6.39 11.37 4.97 13.49 1.42 13.49 L 0 13.49 L 0 18.46 L 7.1 29.82 L 17.04 29.82 L 7.65 17.62 C 9.44 17.22 10.42 16.73 11.45 15.83 C 13.15 14.36 14.2 12.07 14.2 9.21 C 14.2 5.69 12.07 0 4.29 0 Z M 117.36 19.62 C 117.33 22.17 119.37 24.27 121.92 24.3 C 124.47 24.33 126.57 22.29 126.6 19.74 C 126.63 17.19 124.59 15.09 122.04 15.06 L 121.95 15.06 C 119.43 15.07 117.39 17.1 117.35 19.62 L 117.36 19.62 Z M 133.53 0 L 133.53 29.8 L 126.38 29.8 L 126.38 27.57 C 124.82 29.58 122.86 30.47 120.13 30.47 C 114.36 30.47 109.9 25.74 109.9 19.62 C 109.9 13.5 114.32 8.9 120.09 8.9 C 122.47 8.81 124.77 9.78 126.38 11.54 L 126.38 0 L 133.53 0 Z M 95.96 24.22 C 93.4 24.21 91.35 22.12 91.36 19.57 C 91.39 17.04 93.43 15 95.96 14.97 L 96.01 14.97 C 98.57 14.98 100.62 17.07 100.61 19.62 C 100.6 22.18 98.51 24.23 95.96 24.22 Z M 95.87 30.56 C 103.11 30.56 108.16 26.1 108.16 19.66 C 108.16 13.32 103.11 8.81 95.96 8.81 C 92.7 8.81 89.48 9.87 87.47 11.62 C 85.17 13.59 83.84 16.45 83.81 19.48 C 83.81 26 88.63 30.56 95.87 30.56 Z M 79.53 14.79 L 79.523 14.786 L 81.92 10.16 C 79.86 9.26 77.64 8.81 75.4 8.86 C 69.82 8.86 66.38 11.67 66.38 16.18 C 66.38 19.35 68.03 20.92 72.32 21.81 C 74.74 22.35 75.36 22.7 75.36 23.64 C 75.36 24.58 74.43 25.25 73.13 25.25 C 71.49 25.25 69.3 24.44 67.42 23.19 L 64.83 28.24 C 67.25 29.74 70.05 30.55 72.91 30.56 C 78.76 30.56 82.56 27.57 82.56 22.97 C 82.56 19.7 80.68 17.78 76.67 16.98 C 73.98 16.4 73.45 16.13 73.45 15.24 C 73.45 14.43 74.34 13.81 75.64 13.81 C 76.997 13.83 78.324 14.159 79.523 14.786 L 79.51 14.81 L 79.53 14.79 Z M 52.81 24.31 C 50.26 24.29 48.2 22.21 48.21 19.66 L 48.22 19.66 C 48.24 17.13 50.29 15.08 52.82 15.06 L 52.86 15.06 C 55.41 15.08 57.48 17.16 57.46 19.71 C 57.44 22.26 55.36 24.32 52.81 24.31 Z M 41.3 9.56 L 41.3 39.37 L 41.31 39.36 L 48.46 39.36 L 48.46 27.82 C 50.07 29.58 52.37 30.55 54.75 30.46 C 60.51 30.46 64.93 25.85 64.93 19.74 C 64.93 13.63 60.47 8.89 54.7 8.89 C 51.98 8.89 50.01 9.78 48.45 11.79 L 48.45 9.56 L 41.3 9.56 Z M 27.05 24.31 C 24.5 24.27 22.45 22.17 22.49 19.62 C 22.53 17.1 24.57 15.07 27.09 15.06 L 27.18 15.06 C 29.73 15.1 31.78 17.2 31.74 19.75 C 31.7 22.3 29.6 24.35 27.05 24.31 Z M 38.66 29.8 L 38.66 9.58 L 31.52 9.58 L 31.52 11.54 C 29.91 9.78 27.6 8.81 25.22 8.9 C 19.45 8.9 15.03 13.5 15.03 19.62 C 15.03 25.74 19.5 30.47 25.26 30.47 C 27.98 30.47 29.94 29.58 31.51 27.57 L 31.51 29.8 L 38.66 29.8 Z M 147.52 24.21 C 144.96 24.2 142.91 22.12 142.92 19.57 C 142.95 17.04 144.99 14.99 147.52 14.97 L 147.56 14.97 C 150.12 14.98 152.17 17.06 152.16 19.61 C 152.15 22.17 150.07 24.22 147.52 24.21 Z M 147.42 30.56 C 154.66 30.56 159.71 26.1 159.71 19.66 L 159.7 19.66 C 159.7 13.32 154.66 8.81 147.51 8.81 C 144.25 8.81 141.03 9.87 139.02 11.62 C 136.72 13.59 135.39 16.45 135.36 19.48 C 135.36 26 140.18 30.56 147.42 30.56 Z M 161.398 5.378 C 162.878 5.366 164.066 4.16 164.054 2.68 L 164.06 2.674 C 164.06 2.153 163.908 1.649 163.623 1.213 C 163.351 0.782 162.95 0.437 162.477 0.23 C 162.126 0.073 161.744 0 161.356 0 C 160.737 0 160.143 0.218 159.67 0.618 C 159.367 0.867 159.124 1.182 158.955 1.54 C 158.779 1.892 158.7 2.28 158.7 2.674 L 158.7 2.722 C 158.712 4.202 159.919 5.39 161.398 5.378 Z M 159.791 1.061 C 160.198 0.625 160.768 0.382 161.362 0.388 L 161.368 0.382 C 161.847 0.376 162.308 0.521 162.696 0.8 C 162.981 1.013 163.217 1.292 163.369 1.613 C 163.533 1.94 163.623 2.304 163.623 2.668 C 163.636 3.28 163.399 3.868 162.969 4.299 L 162.914 4.354 C 162.035 5.202 160.64 5.178 159.791 4.299 C 159.361 3.868 159.124 3.28 159.137 2.668 C 159.124 2.068 159.361 1.486 159.791 1.061 Z M 162.647 4.226 L 161.641 2.935 L 161.653 2.941 L 161.695 2.929 C 161.877 2.874 162.035 2.759 162.144 2.607 C 162.259 2.45 162.32 2.262 162.32 2.068 C 162.326 1.795 162.205 1.534 161.986 1.37 C 161.701 1.195 161.374 1.116 161.04 1.14 L 160.422 1.14 L 160.422 4.226 L 161.01 4.226 L 161.01 3.001 L 161.926 4.226 L 162.647 4.226 Z M 161.101 2.504 L 161.004 2.504 L 161.004 1.661 L 161.125 1.661 C 161.532 1.661 161.738 1.795 161.738 2.068 C 161.738 2.359 161.526 2.504 161.101 2.504 Z" fill="currentColor" fill-rule="evenodd"></path>
</svg>
</svg>